<svg width="21" height="10" viewBox="0 0 21 10" fill="none" xmlns="http://www.w3.org/2000/svg">
<mask id="path-1-outside-1_28_5" maskUnits="userSpaceOnUse" x="-1" y="-1" width="23" height="12" fill="black">
<rect fill="white" x="-1" y="-1" width="23" height="12"/>
<path d="M7.02273 3C6.92898 2.71307 6.8054 2.45597 6.65199 2.22869C6.50142 1.99858 6.32102 1.80256 6.1108 1.64062C5.90341 1.47869 5.66761 1.35511 5.40341 1.26989C5.1392 1.18466 4.84943 1.14205 4.53409 1.14205C4.01705 1.14205 3.54688 1.27557 3.12358 1.54261C2.70028 1.80966 2.36364 2.20312 2.11364 2.72301C1.86364 3.2429 1.73864 3.88068 1.73864 4.63636C1.73864 5.39205 1.86506 6.02983 2.1179 6.54972C2.37074 7.0696 2.71307 7.46307 3.14489 7.73011C3.5767 7.99716 4.0625 8.13068 4.60227 8.13068C5.10227 8.13068 5.54261 8.02415 5.9233 7.81108C6.30682 7.59517 6.60511 7.29119 6.81818 6.89915C7.03409 6.50426 7.14205 6.03977 7.14205 5.50568L7.46591 5.57386H4.84091V4.63636H8.16477V5.57386C8.16477 6.29261 8.01136 6.91761 7.70455 7.44886C7.40057 7.98011 6.98011 8.39205 6.44318 8.68466C5.90909 8.97443 5.29545 9.11932 4.60227 9.11932C3.82955 9.11932 3.15057 8.9375 2.56534 8.57386C1.98295 8.21023 1.52841 7.69318 1.2017 7.02273C0.877841 6.35227 0.715909 5.55682 0.715909 4.63636C0.715909 3.94602 0.808239 3.32528 0.992898 2.77415C1.1804 2.22017 1.4446 1.74858 1.78551 1.35938C2.12642 0.97017 2.52983 0.671875 2.99574 0.464489C3.46165 0.257102 3.97443 0.153409 4.53409 0.153409C4.99432 0.153409 5.4233 0.223011 5.82102 0.362216C6.22159 0.498579 6.57812 0.693181 6.89062 0.946022C7.20597 1.19602 7.46875 1.49574 7.67898 1.84517C7.8892 2.19176 8.03409 2.5767 8.11364 3H7.02273ZM19.0771 0.272727H20.1339V6.05114C20.1339 6.64773 19.9933 7.1804 19.712 7.64915C19.4336 8.11506 19.0401 8.48295 18.5316 8.75284C18.0231 9.01989 17.4265 9.15341 16.7418 9.15341C16.0572 9.15341 15.4606 9.01989 14.9521 8.75284C14.4435 8.48295 14.0487 8.11506 13.7674 7.64915C13.489 7.1804 13.3498 6.64773 13.3498 6.05114V0.272727H14.4066V5.96591C14.4066 6.39205 14.5004 6.77131 14.6879 7.10369C14.8754 7.43324 15.1424 7.69318 15.489 7.88352C15.8384 8.07102 16.256 8.16477 16.7418 8.16477C17.2276 8.16477 17.6452 8.07102 17.9947 7.88352C18.3441 7.69318 18.6112 7.43324 18.7958 7.10369C18.9833 6.77131 19.0771 6.39205 19.0771 5.96591V0.272727Z"/>
</mask>
<path d="M7.02273 3C6.92898 2.71307 6.8054 2.45597 6.65199 2.22869C6.50142 1.99858 6.32102 1.80256 6.1108 1.64062C5.90341 1.47869 5.66761 1.35511 5.40341 1.26989C5.1392 1.18466 4.84943 1.14205 4.53409 1.14205C4.01705 1.14205 3.54688 1.27557 3.12358 1.54261C2.70028 1.80966 2.36364 2.20312 2.11364 2.72301C1.86364 3.2429 1.73864 3.88068 1.73864 4.63636C1.73864 5.39205 1.86506 6.02983 2.1179 6.54972C2.37074 7.0696 2.71307 7.46307 3.14489 7.73011C3.5767 7.99716 4.0625 8.13068 4.60227 8.13068C5.10227 8.13068 5.54261 8.02415 5.9233 7.81108C6.30682 7.59517 6.60511 7.29119 6.81818 6.89915C7.03409 6.50426 7.14205 6.03977 7.14205 5.50568L7.46591 5.57386H4.84091V4.63636H8.16477V5.57386C8.16477 6.29261 8.01136 6.91761 7.70455 7.44886C7.40057 7.98011 6.98011 8.39205 6.44318 8.68466C5.90909 8.97443 5.29545 9.11932 4.60227 9.11932C3.82955 9.11932 3.15057 8.9375 2.56534 8.57386C1.98295 8.21023 1.52841 7.69318 1.2017 7.02273C0.877841 6.35227 0.715909 5.55682 0.715909 4.63636C0.715909 3.94602 0.808239 3.32528 0.992898 2.77415C1.1804 2.22017 1.4446 1.74858 1.78551 1.35938C2.12642 0.97017 2.52983 0.671875 2.99574 0.464489C3.46165 0.257102 3.97443 0.153409 4.53409 0.153409C4.99432 0.153409 5.4233 0.223011 5.82102 0.362216C6.22159 0.498579 6.57812 0.693181 6.89062 0.946022C7.20597 1.19602 7.46875 1.49574 7.67898 1.84517C7.8892 2.19176 8.03409 2.5767 8.11364 3H7.02273ZM19.0771 0.272727H20.1339V6.05114C20.1339 6.64773 19.9933 7.1804 19.712 7.64915C19.4336 8.11506 19.0401 8.48295 18.5316 8.75284C18.0231 9.01989 17.4265 9.15341 16.7418 9.15341C16.0572 9.15341 15.4606 9.01989 14.9521 8.75284C14.4435 8.48295 14.0487 8.11506 13.7674 7.64915C13.489 7.1804 13.3498 6.64773 13.3498 6.05114V0.272727H14.4066V5.96591C14.4066 6.39205 14.5004 6.77131 14.6879 7.10369C14.8754 7.43324 15.1424 7.69318 15.489 7.88352C15.8384 8.07102 16.256 8.16477 16.7418 8.16477C17.2276 8.16477 17.6452 8.07102 17.9947 7.88352C18.3441 7.69318 18.6112 7.43324 18.7958 7.10369C18.9833 6.77131 19.0771 6.39205 19.0771 5.96591V0.272727Z" fill="#BC8D8D"/>
<path d="M7.02273 3L6.07218 3.31058L6.29744 4H7.02273V3ZM6.65199 2.22869L5.8152 2.77622L5.81913 2.78222L5.82314 2.78817L6.65199 2.22869ZM6.1108 1.64062L5.49535 2.42883L5.50057 2.43285L6.1108 1.64062ZM5.40341 1.26989L5.71041 0.318177L5.71041 0.318177L5.40341 1.26989ZM2.11364 2.72301L3.01485 3.15638L3.01485 3.15638L2.11364 2.72301ZM2.1179 6.54972L1.21861 6.98707L1.21861 6.98707L2.1179 6.54972ZM5.9233 7.81108L6.4117 8.6837L6.41386 8.68248L5.9233 7.81108ZM6.81818 6.89915L5.94077 6.41941L5.93956 6.42163L6.81818 6.89915ZM7.14205 5.50568L7.34806 4.52713L6.14205 4.27324V5.50568H7.14205ZM7.46591 5.57386V6.57386L7.67192 4.59531L7.46591 5.57386ZM4.84091 5.57386H3.84091V6.57386H4.84091V5.57386ZM4.84091 4.63636V3.63636H3.84091V4.63636H4.84091ZM8.16477 4.63636H9.16477V3.63636H8.16477V4.63636ZM7.70455 7.44886L6.83858 6.94874L6.83659 6.95222L7.70455 7.44886ZM6.44318 8.68466L6.92007 9.56363L6.92171 9.56273L6.44318 8.68466ZM2.56534 8.57386L2.03571 9.4221L2.03757 9.42325L2.56534 8.57386ZM1.2017 7.02273L0.301251 7.45769L0.302753 7.46078L1.2017 7.02273ZM0.992898 2.77415L0.0456774 2.45355L0.0447043 2.45645L0.992898 2.77415ZM1.78551 1.35938L2.53775 2.01827L2.53775 2.01827L1.78551 1.35938ZM5.82102 0.362216L5.49066 1.30611L5.49876 1.30887L5.82102 0.362216ZM6.89062 0.946022L6.2616 1.72347L6.26938 1.72964L6.89062 0.946022ZM7.67898 1.84517L6.82209 2.36069L6.82397 2.36378L7.67898 1.84517ZM8.11364 3V4H9.31906L9.09643 2.81531L8.11364 3ZM7.97328 2.68942C7.85358 2.32308 7.6911 1.98072 7.48084 1.66922L5.82314 2.78817C5.91969 2.93121 6.00438 3.10305 6.07218 3.31058L7.97328 2.68942ZM7.48878 1.68117C7.27917 1.36082 7.02314 1.08111 6.72102 0.848399L5.50057 2.43285C5.61891 2.52401 5.72367 2.63634 5.8152 2.77622L7.48878 1.68117ZM6.72623 0.852437C6.42141 0.614429 6.08001 0.437404 5.71041 0.318177L5.09641 2.22159C5.25521 2.27282 5.38541 2.34296 5.49536 2.42881L6.72623 0.852437ZM5.71041 0.318177C5.33457 0.196937 4.93972 0.142045 4.53409 0.142045V2.14205C4.75915 2.14205 4.94384 2.17238 5.09641 2.22159L5.71041 0.318177ZM4.53409 0.142045C3.83477 0.142045 3.17851 0.325591 2.59001 0.696855L3.65715 2.38837C3.91524 2.22555 4.19932 2.14205 4.53409 2.14205V0.142045ZM2.59001 0.696855C1.98482 1.07866 1.53113 1.62687 1.21242 2.28964L3.01485 3.15638C3.19614 2.77938 3.41575 2.54066 3.65715 2.38837L2.59001 0.696855ZM1.21242 2.28964C0.880495 2.97989 0.738636 3.77526 0.738636 4.63636H2.73864C2.73864 3.98611 2.84678 3.5059 3.01485 3.15638L1.21242 2.28964ZM0.738636 4.63636C0.738636 5.49886 0.882378 6.29572 1.21861 6.98707L3.01719 6.11236C2.84774 5.76394 2.73864 5.28523 2.73864 4.63636H0.738636ZM1.21861 6.98707C1.54249 7.65303 2.00459 8.2007 2.61892 8.58062L3.67086 6.87961C3.42155 6.72543 3.19899 6.48618 3.01719 6.11236L1.21861 6.98707ZM2.61892 8.58062C3.21886 8.95163 3.88893 9.13068 4.60227 9.13068V7.13068C4.23607 7.13068 3.93455 7.04268 3.67086 6.87961L2.61892 8.58062ZM4.60227 9.13068C5.24799 9.13068 5.86117 8.99183 6.4117 8.6837L5.43489 6.93846C5.22406 7.05646 4.95656 7.13068 4.60227 7.13068V9.13068ZM6.41386 8.68248C6.96357 8.37302 7.39529 7.93145 7.69681 7.37666L5.93956 6.42163C5.81494 6.65094 5.65007 6.81732 5.43273 6.93968L6.41386 8.68248ZM7.69559 7.37888C8.00572 6.81168 8.14205 6.17613 8.14205 5.50568H6.14205C6.14205 5.90341 6.06246 6.19685 5.94077 6.41941L7.69559 7.37888ZM6.93604 6.48423L7.2599 6.55241L7.67192 4.59531L7.34806 4.52713L6.93604 6.48423ZM7.46591 4.57386H4.84091V6.57386H7.46591V4.57386ZM5.84091 5.57386V4.63636H3.84091V5.57386H5.84091ZM4.84091 5.63636H8.16477V3.63636H4.84091V5.63636ZM7.16477 4.63636V5.57386H9.16477V4.63636H7.16477ZM7.16477 5.57386C7.16477 6.14741 7.04356 6.59385 6.83859 6.94874L8.5705 7.94899C8.97917 7.24138 9.16477 6.43782 9.16477 5.57386H7.16477ZM6.83659 6.95222C6.6245 7.32288 6.3388 7.60269 5.96466 7.80659L6.92171 9.56273C7.62143 9.1814 8.17664 8.63735 8.5725 7.9455L6.83659 6.95222ZM5.9663 7.80569C5.59812 8.00545 5.15261 8.11932 4.60227 8.11932V10.1193C5.4383 10.1193 6.22006 9.94342 6.92007 9.56362L5.9663 7.80569ZM4.60227 8.11932C3.99276 8.11932 3.50121 7.97805 3.09311 7.72448L2.03757 9.42325C2.79993 9.89695 3.66633 10.1193 4.60227 10.1193V8.11932ZM3.09497 7.72563C2.68541 7.46991 2.35253 7.10158 2.10066 6.58468L0.302753 7.46078C0.704284 8.28479 1.2805 8.95054 2.03571 9.42209L3.09497 7.72563ZM2.10215 6.58776C1.85743 6.08114 1.71591 5.44099 1.71591 4.63636H-0.284091C-0.284091 5.67265 -0.101748 6.6234 0.301256 7.45769L2.10215 6.58776ZM1.71591 4.63636C1.71591 4.03431 1.79649 3.52342 1.94109 3.09184L0.0447043 2.45645C-0.180012 3.12715 -0.284091 3.85773 -0.284091 4.63636H1.71591ZM1.94011 3.09474C2.09095 2.64908 2.29401 2.29654 2.53775 2.01827L1.03328 0.700482C0.595198 1.20062 0.269843 1.79126 0.0456818 2.45355L1.94011 3.09474ZM2.53775 2.01827C2.78469 1.73634 3.07073 1.5257 3.40239 1.37807L2.58908 -0.449093C1.98893 -0.181952 1.46815 0.204 1.03327 0.700482L2.53775 2.01827ZM3.40239 1.37807C3.7283 1.233 4.10078 1.15341 4.53409 1.15341V-0.846591C3.84809 -0.846591 3.195 -0.718799 2.58908 -0.449093L3.40239 1.37807ZM4.53409 1.15341C4.89218 1.15341 5.20847 1.2073 5.49067 1.30607L6.15137 -0.581643C5.63812 -0.76128 5.09646 -0.846591 4.53409 -0.846591V1.15341ZM5.49876 1.30887C5.79385 1.40932 6.04536 1.54845 6.26163 1.72343L7.51962 0.168613C7.11089 -0.162089 6.64933 -0.412163 6.14329 -0.584434L5.49876 1.30887ZM6.26938 1.72964C6.48946 1.90412 6.67286 2.11263 6.8221 2.36069L8.53586 1.32965C8.26464 0.878848 7.92247 0.487928 7.51187 0.162406L6.26938 1.72964ZM6.82397 2.36378C6.96807 2.60136 7.07208 2.87203 7.13084 3.18469L9.09643 2.81531C8.9961 2.28138 8.81034 1.78216 8.53399 1.32656L6.82397 2.36378ZM8.11364 2H7.02273V4H8.11364V2ZM19.0771 0.272727V-0.727273H18.0771V0.272727H19.0771ZM20.1339 0.272727H21.1339V-0.727273H20.1339V0.272727ZM19.712 7.64915L18.8545 7.13465L18.8536 7.13619L19.712 7.64915ZM18.5316 8.75284L18.9965 9.6382L19.0004 9.63615L18.5316 8.75284ZM14.9521 8.75284L14.4833 9.63616L14.4871 9.63819L14.9521 8.75284ZM13.7674 7.64915L12.9076 8.15982L12.9113 8.16594L13.7674 7.64915ZM13.3498 0.272727V-0.727273H12.3498V0.272727H13.3498ZM14.4066 0.272727H15.4066V-0.727273H14.4066V0.272727ZM14.6879 7.10369L13.8169 7.59502L13.8187 7.59822L14.6879 7.10369ZM15.489 7.88352L15.0076 8.76008L15.0162 8.76468L15.489 7.88352ZM17.9947 7.88352L18.4675 8.7647L18.473 8.76169L17.9947 7.88352ZM18.7958 7.10369L17.9248 6.61237L17.9234 6.61486L18.7958 7.10369ZM19.0771 1.27273H20.1339V-0.727273H19.0771V1.27273ZM19.1339 0.272727V6.05114H21.1339V0.272727H19.1339ZM19.1339 6.05114C19.1339 6.48359 19.0341 6.83536 18.8545 7.13465L20.5695 8.16364C20.9524 7.52544 21.1339 6.81187 21.1339 6.05114H19.1339ZM18.8536 7.13619C18.6746 7.43578 18.4203 7.67981 18.0628 7.86953L19.0004 9.63615C19.66 9.2861 20.1926 8.79433 20.5704 8.1621L18.8536 7.13619ZM18.0667 7.86749C17.7267 8.04605 17.2955 8.15341 16.7418 8.15341V10.1534C17.5575 10.1534 18.3195 9.99373 18.9965 9.63819L18.0667 7.86749ZM16.7418 8.15341C16.1882 8.15341 15.757 8.04605 15.417 7.86749L14.4871 9.63819C15.1642 9.99373 15.9262 10.1534 16.7418 10.1534V8.15341ZM15.4209 7.86953C15.0626 7.67939 14.8057 7.4342 14.6235 7.13235L12.9113 8.16594C13.2916 8.79591 13.8245 9.28651 14.4833 9.63615L15.4209 7.86953ZM14.6272 7.13849C14.4491 6.83863 14.3498 6.48547 14.3498 6.05114H12.3498C12.3498 6.80998 12.5289 7.52217 12.9076 8.15981L14.6272 7.13849ZM14.3498 6.05114V0.272727H12.3498V6.05114H14.3498ZM13.3498 1.27273H14.4066V-0.727273H13.3498V1.27273ZM13.4066 0.272727V5.96591H15.4066V0.272727H13.4066ZM13.4066 5.96591C13.4066 6.5437 13.5353 7.0958 13.8169 7.59501L15.5588 6.61237C15.4654 6.44682 15.4066 6.24039 15.4066 5.96591H13.4066ZM13.8187 7.59822C14.1017 8.09558 14.5062 8.48468 15.0076 8.76004L15.9704 7.007C15.7786 6.90168 15.649 6.7709 15.557 6.60917L13.8187 7.59822ZM15.0162 8.76468C15.5402 9.04588 16.1277 9.16477 16.7418 9.16477V7.16477C16.3843 7.16477 16.1366 7.09617 15.9618 7.00236L15.0162 8.76468ZM16.7418 9.16477C17.3559 9.16477 17.9434 9.04588 18.4675 8.76468L17.5219 7.00236C17.347 7.09617 17.0993 7.16477 16.7418 7.16477V9.16477ZM18.473 8.76169C18.9786 8.4863 19.3865 8.09531 19.6682 7.59253L17.9234 6.61486C17.8358 6.77117 17.7096 6.90006 17.5163 7.00535L18.473 8.76169ZM19.6668 7.59501C19.9484 7.0958 20.0771 6.5437 20.0771 5.96591H18.0771C18.0771 6.24039 18.0182 6.44682 17.9248 6.61237L19.6668 7.59501ZM20.0771 5.96591V0.272727H18.0771V5.96591H20.0771Z" fill="#A96969" mask="url(#path-1-outside-1_28_5)"/>
</svg>
