<svg xmlns="http://www.w3.org/2000/svg" fill="none" width="24" height="24"><rect width="24" height="24" rx="0" fill="#FFF" fill-opacity=".01"/><circle cx="12" cy="12" fill="#22AB68" r="10"/><circle cx="12" cy="12" stroke="#22AB68" stroke-width="2" stroke-linecap="ROUND" stroke-linejoin="round" r="10"/><g><path d="M7.658 11.284a1 1 0 0 0-1.397 1.432l1.397-1.432zm2.675 4.008-.698.715a1 1 0 0 0 1.435-.039l-.737-.676zM17.72 8.73a1 1 0 0 0-1.472-1.353L17.72 8.73zM6.261 12.716l3.374 3.291 1.397-1.431-3.374-3.292-1.397 1.432zm4.809 3.252 6.65-7.238-1.472-1.353-6.651 7.238 1.473 1.353z" fill="#FFF"/></g></svg>
